<svg xmlns="http://www.w3.org/2000/svg" width="900" height="650" viewBox="0 0 900 650">
<rect width="100%" height="100%" fill="#f8fafc"/>
<text x="30" y="35" font-size="24" font-family="Arial" fill="#0f766e">FINAL2 - trayectoria / odometria + eventos</text>
<text x="30" y="60" font-size="14" font-family="Arial" fill="#475569">Azul: trayectoria | Naranja: intersecciones/aperturas | Rojo: PARE detectado</text>
<polyline points="60.0,590.0 60.9,588.5 61.8,587.2 62.7,585.7 63.7,584.1 64.6,582.8 65.4,581.4 66.3,579.9 67.3,578.2 68.1,576.8 69.3,574.9 70.1,573.5 71.1,571.9 71.9,570.5 72.9,569.0 74.0,567.1 74.9,565.6 75.9,564.0 76.9,562.2 77.7,560.8 78.5,559.3 79.3,557.9 80.1,556.5 80.8,554.9 81.6,553.5 82.3,552.1 83.3,550.2 84.1,548.7 84.8,547.2 85.5,545.9 86.3,544.4 87.0,542.9 87.7,541.4 88.5,539.8 89.3,538.2 90.0,536.7 90.6,535.2 91.3,533.6 92.0,532.1 92.9,529.9 93.5,528.5 94.1,527.0 94.8,525.3 95.4,523.9 95.9,522.4 96.5,520.9 97.2,519.3 97.7,517.8 98.3,516.1 98.8,514.4 99.3,513.0 99.8,511.3 100.2,509.8 100.8,508.0 101.4,506.3 102.0,504.5 102.5,503.0 103.1,501.2 103.7,499.3 104.2,497.8 104.7,496.0 105.2,494.5 105.7,493.0 106.2,491.4 106.7,489.8 107.2,487.9 107.6,486.4 108.1,484.7 108.6,483.2 109.0,481.6 109.5,480.0 109.9,478.5 110.4,477.0 110.8,475.5 111.2,474.0 111.6,472.2 112.1,470.3 112.6,468.6 113.0,467.0 113.4,465.5 114.0,463.6 114.5,462.1 115.1,460.6 115.8,459.0 116.6,457.4 117.5,455.6 118.4,453.9 119.2,452.3 120.0,450.8 120.7,449.5 121.6,448.1 122.4,446.7 123.3,445.4 124.3,443.8 125.3,442.5 126.3,441.3 127.6,439.7 128.8,438.4 130.1,437.0 131.5,435.4 132.6,434.3 134.0,432.9 135.2,431.6 136.3,430.4 137.6,429.1 139.0,427.6 139.4,425.8 138.8,424.3 138.2,422.8 137.7,421.4 137.3,419.9 136.8,418.3 136.4,415.9 136.1,414.3 135.9,412.6 135.6,410.7 135.3,409.2 134.9,407.6 134.6,406.0 134.0,404.2 133.6,402.6 133.1,401.0 132.7,399.5 132.3,397.9 132.0,396.5 131.8,394.9 131.5,393.1 132.2,394.6 132.0,393.1 131.7,391.4 131.5,389.9 131.2,388.1 131.0,386.4 130.7,384.6 130.5,383.0 130.3,381.1 130.1,379.5 130.0,378.0 129.8,376.5 129.6,374.8 129.4,373.2 129.2,371.5 129.0,370.0 128.9,368.1 128.7,366.5 128.5,364.9 128.3,363.3 128.1,361.6 128.0,360.0 127.8,358.5 127.7,356.8 127.5,355.0 127.4,353.2 127.3,351.7 127.3,350.1 127.2,348.5 127.1,346.9 127.1,345.3 127.0,343.5 126.9,341.7 126.8,340.1 126.7,338.6 126.7,336.8 126.6,335.2 126.5,333.6 126.3,331.5 126.3,329.5 126.2,327.9 126.2,326.2 126.1,324.7 126.0,323.0 126.0,321.2 125.9,319.3 125.9,317.7 125.9,315.9 125.9,314.3 125.8,312.5 125.8,310.9 125.7,309.1 125.8,307.6 125.8,306.0 125.8,304.4 125.9,302.8 125.9,301.1 125.9,299.4 125.9,297.8 126.0,296.1 126.0,294.5 126.1,292.7 126.1,291.2 126.2,289.6 126.3,288.0 126.4,286.4 126.5,284.4 126.6,282.9 126.7,280.7 126.7,279.1 126.8,277.2 126.8,275.4 126.9,273.1 127.0,271.4 127.1,269.8 127.2,268.3 127.3,266.6 127.4,264.9 127.6,263.3 127.7,261.7 127.9,260.1 128.0,258.6 128.2,256.9 128.4,255.2 128.6,253.6 128.8,251.9 129.0,250.4 129.4,248.1 129.6,246.5 129.8,245.0 130.1,243.4 130.4,241.8 130.7,240.2 131.0,238.4 131.3,236.9 131.7,234.9 132.0,233.4 132.3,231.8 132.6,230.1 133.0,228.5 133.4,226.6 133.7,225.0 134.2,223.1 134.5,221.6 134.9,219.8 135.4,218.2 135.8,216.5 136.3,214.8 136.7,213.1 137.2,211.4 137.6,209.8 138.0,208.3 138.5,206.7 138.9,205.1 139.4,203.3 139.8,201.7 140.3,200.2 140.7,198.7 141.2,196.9 141.6,195.2 142.1,193.7 142.6,192.0 143.0,190.5 143.5,189.1 144.0,187.5 144.5,186.1 145.0,184.6 145.5,183.0 146.0,181.5 146.5,180.0 147.1,178.5 147.7,176.9 148.5,175.1 149.1,173.7 149.7,172.3 150.3,170.9 150.9,169.4 151.6,168.0 152.2,166.4 153.0,164.7 153.7,163.1 154.4,161.7 155.3,159.8 156.0,158.5 156.7,156.8 157.4,155.3 158.2,153.8 158.9,152.3 159.7,150.9 160.4,149.5 161.2,147.9 161.9,146.6 162.9,144.8 163.6,143.4 164.6,141.7 165.3,140.3 166.1,138.9 166.9,137.3 167.7,136.0 168.7,134.5 169.6,133.0 170.5,131.5 171.4,130.1 172.2,128.8 173.2,127.3 174.0,125.9 175.0,124.4 175.8,123.1 176.7,121.7 177.6,120.3 178.6,118.8 179.6,117.3 180.5,116.0 181.4,114.7 182.5,113.3 183.3,112.0 184.3,110.8 185.6,109.2 186.9,107.8 188.0,106.6 189.3,105.5 190.4,104.4 191.7,103.2 192.8,102.2 194.3,100.9 195.6,99.7 196.7,98.7 197.9,97.6 199.3,96.3 200.5,95.2 201.7,94.2 203.0,93.1 204.2,92.0 205.6,90.9 207.1,89.5 208.5,88.3 209.7,87.2 211.0,86.2 212.1,85.2 213.6,84.0 214.7,83.0 216.0,82.0 217.2,81.0 218.4,80.0 219.6,79.0 221.3,77.6 222.5,76.6 223.8,75.5 225.2,74.4 226.6,73.2 227.8,72.2 229.0,71.2 230.2,70.2 231.4,69.2 232.8,68.1 233.9,67.1 235.2,66.1 236.4,65.1 237.8,63.9 239.1,62.9 240.2,61.9 241.5,61.0 242.7,60.0" fill="none" stroke="#0284c7" stroke-width="5" stroke-linejoin="round" stroke-linecap="round"/>
<circle cx="60.0" cy="590.0" r="10" fill="#f59e0b" opacity="0.9"/>
<circle cx="99.3" cy="513.0" r="10" fill="#f59e0b" opacity="0.9"/>
<circle cx="108.1" cy="484.7" r="10" fill="#f59e0b" opacity="0.9"/>
<circle cx="116.6" cy="457.4" r="10" fill="#f59e0b" opacity="0.9"/>
<circle cx="139.0" cy="427.6" r="10" fill="#f59e0b" opacity="0.9"/>
<circle cx="132.7" cy="399.5" r="10" fill="#f59e0b" opacity="0.9"/>
<circle cx="129.2" cy="371.5" r="10" fill="#f59e0b" opacity="0.9"/>
<circle cx="127.0" cy="343.5" r="10" fill="#f59e0b" opacity="0.9"/>
<circle cx="125.9" cy="314.3" r="10" fill="#f59e0b" opacity="0.9"/>
<circle cx="126.4" cy="286.4" r="10" fill="#f59e0b" opacity="0.9"/>
<circle cx="128.2" cy="256.9" r="10" fill="#f59e0b" opacity="0.9"/>
<circle cx="133.0" cy="228.5" r="10" fill="#f59e0b" opacity="0.9"/>
<circle cx="140.3" cy="200.2" r="10" fill="#f59e0b" opacity="0.9"/>
<circle cx="149.7" cy="172.3" r="10" fill="#f59e0b" opacity="0.9"/>
<circle cx="161.9" cy="146.6" r="10" fill="#f59e0b" opacity="0.9"/>
<circle cx="176.7" cy="121.7" r="10" fill="#f59e0b" opacity="0.9"/>
<circle cx="195.6" cy="99.7" r="10" fill="#f59e0b" opacity="0.9"/>
<circle cx="217.2" cy="81.0" r="10" fill="#f59e0b" opacity="0.9"/>
<circle cx="239.1" cy="62.9" r="10" fill="#f59e0b" opacity="0.9"/>
</svg>
